<mxfile host="app.diagrams.net" agent="Mozilla/5.0 (X11; Linux x86_64) AppleWebKit/537.36 (KHTML, like Gecko) Chrome/131.0.0.0 Safari/537.36" version="24.9.1" pages="3">
  <diagram id="C5RBs43oDa-KdzZeNtuy" name="Class diagram">
    <mxGraphModel dx="3585" dy="3139" grid="1" gridSize="10" guides="1" tooltips="1" connect="1" arrows="1" fold="1" page="1" pageScale="1" pageWidth="827" pageHeight="1169" math="0" shadow="0">
      <root>
        <mxCell id="WIyWlLk6GJQsqaUBKTNV-0" />
        <mxCell id="WIyWlLk6GJQsqaUBKTNV-1" parent="WIyWlLk6GJQsqaUBKTNV-0" />
        <mxCell id="Bd5RzdEb4boKIMRvsXRX-26" style="edgeStyle=orthogonalEdgeStyle;rounded=0;orthogonalLoop=1;jettySize=auto;html=1;exitX=0.5;exitY=0;exitDx=0;exitDy=0;entryX=0;entryY=0.5;entryDx=0;entryDy=0;" parent="WIyWlLk6GJQsqaUBKTNV-1" source="zkfFHV4jXpPFQw0GAbJ--0" target="Bd5RzdEb4boKIMRvsXRX-3" edge="1">
          <mxGeometry relative="1" as="geometry" />
        </mxCell>
        <mxCell id="zkfFHV4jXpPFQw0GAbJ--0" value="User" style="swimlane;fontStyle=2;align=center;verticalAlign=top;childLayout=stackLayout;horizontal=1;startSize=26;horizontalStack=0;resizeParent=1;resizeLast=0;collapsible=1;marginBottom=0;rounded=0;shadow=0;strokeWidth=1;fillColor=#f8cecc;strokeColor=#b85450;" parent="WIyWlLk6GJQsqaUBKTNV-1" vertex="1">
          <mxGeometry x="30" y="360" width="160" height="182" as="geometry">
            <mxRectangle x="30" y="360" width="160" height="26" as="alternateBounds" />
          </mxGeometry>
        </mxCell>
        <mxCell id="Bd5RzdEb4boKIMRvsXRX-32" value="Id" style="text;align=left;verticalAlign=top;spacingLeft=4;spacingRight=4;overflow=hidden;rotatable=0;points=[[0,0.5],[1,0.5]];portConstraint=eastwest;rounded=0;shadow=0;html=0;" parent="zkfFHV4jXpPFQw0GAbJ--0" vertex="1">
          <mxGeometry y="26" width="160" height="26" as="geometry" />
        </mxCell>
        <mxCell id="zkfFHV4jXpPFQw0GAbJ--1" value="FörNamn" style="text;align=left;verticalAlign=top;spacingLeft=4;spacingRight=4;overflow=hidden;rotatable=0;points=[[0,0.5],[1,0.5]];portConstraint=eastwest;" parent="zkfFHV4jXpPFQw0GAbJ--0" vertex="1">
          <mxGeometry y="52" width="160" height="26" as="geometry" />
        </mxCell>
        <mxCell id="zkfFHV4jXpPFQw0GAbJ--2" value="EfterNamn" style="text;align=left;verticalAlign=top;spacingLeft=4;spacingRight=4;overflow=hidden;rotatable=0;points=[[0,0.5],[1,0.5]];portConstraint=eastwest;rounded=0;shadow=0;html=0;" parent="zkfFHV4jXpPFQw0GAbJ--0" vertex="1">
          <mxGeometry y="78" width="160" height="26" as="geometry" />
        </mxCell>
        <mxCell id="zkfFHV4jXpPFQw0GAbJ--3" value="Email Address" style="text;align=left;verticalAlign=top;spacingLeft=4;spacingRight=4;overflow=hidden;rotatable=0;points=[[0,0.5],[1,0.5]];portConstraint=eastwest;rounded=0;shadow=0;html=0;" parent="zkfFHV4jXpPFQw0GAbJ--0" vertex="1">
          <mxGeometry y="104" width="160" height="26" as="geometry" />
        </mxCell>
        <mxCell id="Bd5RzdEb4boKIMRvsXRX-30" value="Password" style="text;align=left;verticalAlign=top;spacingLeft=4;spacingRight=4;overflow=hidden;rotatable=0;points=[[0,0.5],[1,0.5]];portConstraint=eastwest;rounded=0;shadow=0;html=0;" parent="zkfFHV4jXpPFQw0GAbJ--0" vertex="1">
          <mxGeometry y="130" width="160" height="26" as="geometry" />
        </mxCell>
        <mxCell id="Bd5RzdEb4boKIMRvsXRX-38" value="Collection of &lt;Bill&gt;" style="text;align=left;verticalAlign=top;spacingLeft=4;spacingRight=4;overflow=hidden;rotatable=0;points=[[0,0.5],[1,0.5]];portConstraint=eastwest;rounded=0;shadow=0;html=0;" parent="zkfFHV4jXpPFQw0GAbJ--0" vertex="1">
          <mxGeometry y="156" width="160" height="26" as="geometry" />
        </mxCell>
        <mxCell id="Bd5RzdEb4boKIMRvsXRX-1" value="DbContext" style="swimlane;fontStyle=2;align=center;verticalAlign=top;childLayout=stackLayout;horizontal=1;startSize=26;horizontalStack=0;resizeParent=1;resizeLast=0;collapsible=1;marginBottom=0;rounded=0;shadow=0;strokeWidth=1;fillColor=#d5e8d4;strokeColor=#82b366;" parent="WIyWlLk6GJQsqaUBKTNV-1" vertex="1">
          <mxGeometry x="414" y="10" width="160" height="120" as="geometry">
            <mxRectangle x="230" y="140" width="160" height="26" as="alternateBounds" />
          </mxGeometry>
        </mxCell>
        <mxCell id="Bd5RzdEb4boKIMRvsXRX-3" value="DbSet&lt;users&gt;" style="text;align=left;verticalAlign=top;spacingLeft=4;spacingRight=4;overflow=hidden;rotatable=0;points=[[0,0.5],[1,0.5]];portConstraint=eastwest;rounded=0;shadow=0;html=0;" parent="Bd5RzdEb4boKIMRvsXRX-1" vertex="1">
          <mxGeometry y="26" width="160" height="26" as="geometry" />
        </mxCell>
        <mxCell id="Bd5RzdEb4boKIMRvsXRX-47" value="DbSet&lt;Bills&gt;" style="text;align=left;verticalAlign=top;spacingLeft=4;spacingRight=4;overflow=hidden;rotatable=0;points=[[0,0.5],[1,0.5]];portConstraint=eastwest;rounded=0;shadow=0;html=0;" parent="Bd5RzdEb4boKIMRvsXRX-1" vertex="1">
          <mxGeometry y="52" width="160" height="26" as="geometry" />
        </mxCell>
        <mxCell id="Bd5RzdEb4boKIMRvsXRX-48" value="DbSet&lt;admins&gt;" style="text;align=left;verticalAlign=top;spacingLeft=4;spacingRight=4;overflow=hidden;rotatable=0;points=[[0,0.5],[1,0.5]];portConstraint=eastwest;rounded=0;shadow=0;html=0;" parent="Bd5RzdEb4boKIMRvsXRX-1" vertex="1">
          <mxGeometry y="78" width="160" height="26" as="geometry" />
        </mxCell>
        <mxCell id="Bd5RzdEb4boKIMRvsXRX-27" style="edgeStyle=orthogonalEdgeStyle;rounded=0;orthogonalLoop=1;jettySize=auto;html=1;exitX=0.5;exitY=0;exitDx=0;exitDy=0;entryX=0.5;entryY=1;entryDx=0;entryDy=0;" parent="WIyWlLk6GJQsqaUBKTNV-1" source="Bd5RzdEb4boKIMRvsXRX-8" target="Bd5RzdEb4boKIMRvsXRX-1" edge="1">
          <mxGeometry relative="1" as="geometry" />
        </mxCell>
        <mxCell id="Bd5RzdEb4boKIMRvsXRX-8" value="Bill" style="swimlane;fontStyle=2;align=center;verticalAlign=top;childLayout=stackLayout;horizontal=1;startSize=26;horizontalStack=0;resizeParent=1;resizeLast=0;collapsible=1;marginBottom=0;rounded=0;shadow=0;strokeWidth=1;fillColor=#f8cecc;strokeColor=#b85450;" parent="WIyWlLk6GJQsqaUBKTNV-1" vertex="1">
          <mxGeometry x="414" y="220" width="160" height="208" as="geometry">
            <mxRectangle x="414" y="220" width="160" height="26" as="alternateBounds" />
          </mxGeometry>
        </mxCell>
        <mxCell id="Bd5RzdEb4boKIMRvsXRX-9" value="ID" style="text;align=left;verticalAlign=top;spacingLeft=4;spacingRight=4;overflow=hidden;rotatable=0;points=[[0,0.5],[1,0.5]];portConstraint=eastwest;" parent="Bd5RzdEb4boKIMRvsXRX-8" vertex="1">
          <mxGeometry y="26" width="160" height="26" as="geometry" />
        </mxCell>
        <mxCell id="Bd5RzdEb4boKIMRvsXRX-10" value="product name" style="text;align=left;verticalAlign=top;spacingLeft=4;spacingRight=4;overflow=hidden;rotatable=0;points=[[0,0.5],[1,0.5]];portConstraint=eastwest;rounded=0;shadow=0;html=0;" parent="Bd5RzdEb4boKIMRvsXRX-8" vertex="1">
          <mxGeometry y="52" width="160" height="26" as="geometry" />
        </mxCell>
        <mxCell id="Bd5RzdEb4boKIMRvsXRX-37" value="Total" style="text;align=left;verticalAlign=top;spacingLeft=4;spacingRight=4;overflow=hidden;rotatable=0;points=[[0,0.5],[1,0.5]];portConstraint=eastwest;rounded=0;shadow=0;html=0;" parent="Bd5RzdEb4boKIMRvsXRX-8" vertex="1">
          <mxGeometry y="78" width="160" height="26" as="geometry" />
        </mxCell>
        <mxCell id="Bd5RzdEb4boKIMRvsXRX-11" value="Address" style="text;align=left;verticalAlign=top;spacingLeft=4;spacingRight=4;overflow=hidden;rotatable=0;points=[[0,0.5],[1,0.5]];portConstraint=eastwest;rounded=0;shadow=0;html=0;" parent="Bd5RzdEb4boKIMRvsXRX-8" vertex="1">
          <mxGeometry y="104" width="160" height="26" as="geometry" />
        </mxCell>
        <mxCell id="Bd5RzdEb4boKIMRvsXRX-33" value="Date time " style="text;align=left;verticalAlign=top;spacingLeft=4;spacingRight=4;overflow=hidden;rotatable=0;points=[[0,0.5],[1,0.5]];portConstraint=eastwest;rounded=0;shadow=0;html=0;" parent="Bd5RzdEb4boKIMRvsXRX-8" vertex="1">
          <mxGeometry y="130" width="160" height="26" as="geometry" />
        </mxCell>
        <mxCell id="Bd5RzdEb4boKIMRvsXRX-49" value="betalnings metoder" style="text;align=left;verticalAlign=top;spacingLeft=4;spacingRight=4;overflow=hidden;rotatable=0;points=[[0,0.5],[1,0.5]];portConstraint=eastwest;rounded=0;shadow=0;html=0;" parent="Bd5RzdEb4boKIMRvsXRX-8" vertex="1">
          <mxGeometry y="156" width="160" height="26" as="geometry" />
        </mxCell>
        <mxCell id="Bd5RzdEb4boKIMRvsXRX-39" value="Id FK " style="text;align=left;verticalAlign=top;spacingLeft=4;spacingRight=4;overflow=hidden;rotatable=0;points=[[0,0.5],[1,0.5]];portConstraint=eastwest;rounded=0;shadow=0;html=0;" parent="Bd5RzdEb4boKIMRvsXRX-8" vertex="1">
          <mxGeometry y="182" width="160" height="26" as="geometry" />
        </mxCell>
        <mxCell id="Bd5RzdEb4boKIMRvsXRX-28" style="edgeStyle=orthogonalEdgeStyle;rounded=0;orthogonalLoop=1;jettySize=auto;html=1;exitX=0.5;exitY=0;exitDx=0;exitDy=0;entryX=1;entryY=0.5;entryDx=0;entryDy=0;" parent="WIyWlLk6GJQsqaUBKTNV-1" source="Bd5RzdEb4boKIMRvsXRX-14" target="Bd5RzdEb4boKIMRvsXRX-3" edge="1">
          <mxGeometry relative="1" as="geometry" />
        </mxCell>
        <mxCell id="Bd5RzdEb4boKIMRvsXRX-14" value="Admin" style="swimlane;fontStyle=2;align=center;verticalAlign=top;childLayout=stackLayout;horizontal=1;startSize=26;horizontalStack=0;resizeParent=1;resizeLast=0;collapsible=1;marginBottom=0;rounded=0;shadow=0;strokeWidth=1;fillColor=#f8cecc;strokeColor=#b85450;" parent="WIyWlLk6GJQsqaUBKTNV-1" vertex="1">
          <mxGeometry x="680" y="430" width="160" height="220" as="geometry">
            <mxRectangle x="680" y="430" width="160" height="26" as="alternateBounds" />
          </mxGeometry>
        </mxCell>
        <mxCell id="Bd5RzdEb4boKIMRvsXRX-15" value="Id" style="text;align=left;verticalAlign=top;spacingLeft=4;spacingRight=4;overflow=hidden;rotatable=0;points=[[0,0.5],[1,0.5]];portConstraint=eastwest;" parent="Bd5RzdEb4boKIMRvsXRX-14" vertex="1">
          <mxGeometry y="26" width="160" height="26" as="geometry" />
        </mxCell>
        <mxCell id="Bd5RzdEb4boKIMRvsXRX-16" value="FörrNamn" style="text;align=left;verticalAlign=top;spacingLeft=4;spacingRight=4;overflow=hidden;rotatable=0;points=[[0,0.5],[1,0.5]];portConstraint=eastwest;rounded=0;shadow=0;html=0;" parent="Bd5RzdEb4boKIMRvsXRX-14" vertex="1">
          <mxGeometry y="52" width="160" height="26" as="geometry" />
        </mxCell>
        <mxCell id="Bd5RzdEb4boKIMRvsXRX-17" value="EfterNamn" style="text;align=left;verticalAlign=top;spacingLeft=4;spacingRight=4;overflow=hidden;rotatable=0;points=[[0,0.5],[1,0.5]];portConstraint=eastwest;rounded=0;shadow=0;html=0;" parent="Bd5RzdEb4boKIMRvsXRX-14" vertex="1">
          <mxGeometry y="78" width="160" height="26" as="geometry" />
        </mxCell>
        <mxCell id="Bd5RzdEb4boKIMRvsXRX-40" value="Email Address" style="text;align=left;verticalAlign=top;spacingLeft=4;spacingRight=4;overflow=hidden;rotatable=0;points=[[0,0.5],[1,0.5]];portConstraint=eastwest;rounded=0;shadow=0;html=0;" parent="Bd5RzdEb4boKIMRvsXRX-14" vertex="1">
          <mxGeometry y="104" width="160" height="26" as="geometry" />
        </mxCell>
        <mxCell id="Bd5RzdEb4boKIMRvsXRX-41" value="Password" style="text;align=left;verticalAlign=top;spacingLeft=4;spacingRight=4;overflow=hidden;rotatable=0;points=[[0,0.5],[1,0.5]];portConstraint=eastwest;rounded=0;shadow=0;html=0;" parent="Bd5RzdEb4boKIMRvsXRX-14" vertex="1">
          <mxGeometry y="130" width="160" height="26" as="geometry" />
        </mxCell>
        <mxCell id="Bd5RzdEb4boKIMRvsXRX-43" value="Collection of product " style="text;align=left;verticalAlign=top;spacingLeft=4;spacingRight=4;overflow=hidden;rotatable=0;points=[[0,0.5],[1,0.5]];portConstraint=eastwest;rounded=0;shadow=0;html=0;" parent="Bd5RzdEb4boKIMRvsXRX-14" vertex="1">
          <mxGeometry y="156" width="160" height="26" as="geometry" />
        </mxCell>
        <mxCell id="Bd5RzdEb4boKIMRvsXRX-44" value="Collection of User " style="text;align=left;verticalAlign=top;spacingLeft=4;spacingRight=4;overflow=hidden;rotatable=0;points=[[0,0.5],[1,0.5]];portConstraint=eastwest;rounded=0;shadow=0;html=0;" parent="Bd5RzdEb4boKIMRvsXRX-14" vertex="1">
          <mxGeometry y="182" width="160" height="26" as="geometry" />
        </mxCell>
        <mxCell id="Bd5RzdEb4boKIMRvsXRX-34" value="" style="edgeStyle=entityRelationEdgeStyle;fontSize=12;html=1;endArrow=ERzeroToMany;endFill=1;rounded=0;exitX=0.981;exitY=1;exitDx=0;exitDy=0;exitPerimeter=0;strokeWidth=2;entryX=0.006;entryY=0.769;entryDx=0;entryDy=0;entryPerimeter=0;" parent="WIyWlLk6GJQsqaUBKTNV-1" source="Bd5RzdEb4boKIMRvsXRX-32" target="Bd5RzdEb4boKIMRvsXRX-9" edge="1">
          <mxGeometry width="100" height="100" relative="1" as="geometry">
            <mxPoint x="310" y="460" as="sourcePoint" />
            <mxPoint x="410" y="360" as="targetPoint" />
          </mxGeometry>
        </mxCell>
        <mxCell id="Bd5RzdEb4boKIMRvsXRX-46" value="" style="edgeStyle=entityRelationEdgeStyle;fontSize=12;html=1;endArrow=ERoneToMany;startArrow=ERmandOne;rounded=0;strokeWidth=3;entryX=1;entryY=0.5;entryDx=0;entryDy=0;" parent="WIyWlLk6GJQsqaUBKTNV-1" source="Bd5RzdEb4boKIMRvsXRX-15" target="Bd5RzdEb4boKIMRvsXRX-38" edge="1">
          <mxGeometry width="100" height="100" relative="1" as="geometry">
            <mxPoint x="880" y="511.99" as="sourcePoint" />
            <mxPoint x="200" y="481.99800000000005" as="targetPoint" />
          </mxGeometry>
        </mxCell>
        <mxCell id="Bd5RzdEb4boKIMRvsXRX-50" value="Interface Validation" style="swimlane;fontStyle=2;align=center;verticalAlign=top;childLayout=stackLayout;horizontal=1;startSize=26;horizontalStack=0;resizeParent=1;resizeLast=0;collapsible=1;marginBottom=0;rounded=0;shadow=0;strokeWidth=1;fillColor=#dae8fc;strokeColor=#6c8ebf;" parent="WIyWlLk6GJQsqaUBKTNV-1" vertex="1">
          <mxGeometry x="310" y="680" width="160" height="160" as="geometry">
            <mxRectangle x="310" y="680" width="160" height="26" as="alternateBounds" />
          </mxGeometry>
        </mxCell>
        <mxCell id="Bd5RzdEb4boKIMRvsXRX-51" value="Validation of user()" style="text;align=left;verticalAlign=top;spacingLeft=4;spacingRight=4;overflow=hidden;rotatable=0;points=[[0,0.5],[1,0.5]];portConstraint=eastwest;rounded=0;shadow=0;html=0;" parent="Bd5RzdEb4boKIMRvsXRX-50" vertex="1">
          <mxGeometry y="26" width="160" height="26" as="geometry" />
        </mxCell>
        <mxCell id="Bd5RzdEb4boKIMRvsXRX-54" value="Validation of password()" style="text;align=left;verticalAlign=top;spacingLeft=4;spacingRight=4;overflow=hidden;rotatable=0;points=[[0,0.5],[1,0.5]];portConstraint=eastwest;rounded=0;shadow=0;html=0;" parent="Bd5RzdEb4boKIMRvsXRX-50" vertex="1">
          <mxGeometry y="52" width="160" height="26" as="geometry" />
        </mxCell>
        <mxCell id="Bd5RzdEb4boKIMRvsXRX-55" value="Validation of email()" style="text;align=left;verticalAlign=top;spacingLeft=4;spacingRight=4;overflow=hidden;rotatable=0;points=[[0,0.5],[1,0.5]];portConstraint=eastwest;rounded=0;shadow=0;html=0;" parent="Bd5RzdEb4boKIMRvsXRX-50" vertex="1">
          <mxGeometry y="78" width="160" height="26" as="geometry" />
        </mxCell>
        <mxCell id="Bd5RzdEb4boKIMRvsXRX-57" value="user Validation" style="swimlane;fontStyle=2;align=center;verticalAlign=top;childLayout=stackLayout;horizontal=1;startSize=26;horizontalStack=0;resizeParent=1;resizeLast=0;collapsible=1;marginBottom=0;rounded=0;shadow=0;strokeWidth=1;fillColor=#dae8fc;strokeColor=#6c8ebf;" parent="WIyWlLk6GJQsqaUBKTNV-1" vertex="1">
          <mxGeometry x="590" y="840" width="160" height="160" as="geometry">
            <mxRectangle x="590" y="840" width="160" height="26" as="alternateBounds" />
          </mxGeometry>
        </mxCell>
        <mxCell id="Bd5RzdEb4boKIMRvsXRX-58" value="- Validation of user()" style="text;align=left;verticalAlign=top;spacingLeft=4;spacingRight=4;overflow=hidden;rotatable=0;points=[[0,0.5],[1,0.5]];portConstraint=eastwest;rounded=0;shadow=0;html=0;" parent="Bd5RzdEb4boKIMRvsXRX-57" vertex="1">
          <mxGeometry y="26" width="160" height="26" as="geometry" />
        </mxCell>
        <mxCell id="Bd5RzdEb4boKIMRvsXRX-60" value="- Validation of password" style="text;align=left;verticalAlign=top;spacingLeft=4;spacingRight=4;overflow=hidden;rotatable=0;points=[[0,0.5],[1,0.5]];portConstraint=eastwest;rounded=0;shadow=0;html=0;" parent="Bd5RzdEb4boKIMRvsXRX-57" vertex="1">
          <mxGeometry y="52" width="160" height="26" as="geometry" />
        </mxCell>
        <mxCell id="Bd5RzdEb4boKIMRvsXRX-61" value="- Validation of email" style="text;align=left;verticalAlign=top;spacingLeft=4;spacingRight=4;overflow=hidden;rotatable=0;points=[[0,0.5],[1,0.5]];portConstraint=eastwest;rounded=0;shadow=0;html=0;" parent="Bd5RzdEb4boKIMRvsXRX-57" vertex="1">
          <mxGeometry y="78" width="160" height="26" as="geometry" />
        </mxCell>
        <mxCell id="Bd5RzdEb4boKIMRvsXRX-62" value="admin Validation" style="swimlane;fontStyle=2;align=center;verticalAlign=top;childLayout=stackLayout;horizontal=1;startSize=26;horizontalStack=0;resizeParent=1;resizeLast=0;collapsible=1;marginBottom=0;rounded=0;shadow=0;strokeWidth=1;fillColor=#dae8fc;strokeColor=#6c8ebf;" parent="WIyWlLk6GJQsqaUBKTNV-1" vertex="1">
          <mxGeometry x="590" y="1130" width="160" height="160" as="geometry">
            <mxRectangle x="590" y="1130" width="160" height="26" as="alternateBounds" />
          </mxGeometry>
        </mxCell>
        <mxCell id="Bd5RzdEb4boKIMRvsXRX-63" value="Validation of user" style="text;align=left;verticalAlign=top;spacingLeft=4;spacingRight=4;overflow=hidden;rotatable=0;points=[[0,0.5],[1,0.5]];portConstraint=eastwest;rounded=0;shadow=0;html=0;" parent="Bd5RzdEb4boKIMRvsXRX-62" vertex="1">
          <mxGeometry y="26" width="160" height="26" as="geometry" />
        </mxCell>
        <mxCell id="Bd5RzdEb4boKIMRvsXRX-65" value="Validation of password" style="text;align=left;verticalAlign=top;spacingLeft=4;spacingRight=4;overflow=hidden;rotatable=0;points=[[0,0.5],[1,0.5]];portConstraint=eastwest;rounded=0;shadow=0;html=0;" parent="Bd5RzdEb4boKIMRvsXRX-62" vertex="1">
          <mxGeometry y="52" width="160" height="26" as="geometry" />
        </mxCell>
        <mxCell id="Bd5RzdEb4boKIMRvsXRX-66" value="Validation of email" style="text;align=left;verticalAlign=top;spacingLeft=4;spacingRight=4;overflow=hidden;rotatable=0;points=[[0,0.5],[1,0.5]];portConstraint=eastwest;rounded=0;shadow=0;html=0;" parent="Bd5RzdEb4boKIMRvsXRX-62" vertex="1">
          <mxGeometry y="78" width="160" height="26" as="geometry" />
        </mxCell>
        <mxCell id="Bd5RzdEb4boKIMRvsXRX-67" value="bill Validation" style="swimlane;fontStyle=2;align=center;verticalAlign=top;childLayout=stackLayout;horizontal=1;startSize=26;horizontalStack=0;resizeParent=1;resizeLast=0;collapsible=1;marginBottom=0;rounded=0;shadow=0;strokeWidth=1;fillColor=#dae8fc;strokeColor=#6c8ebf;" parent="WIyWlLk6GJQsqaUBKTNV-1" vertex="1">
          <mxGeometry x="40" y="670" width="160" height="160" as="geometry">
            <mxRectangle x="40" y="670" width="160" height="26" as="alternateBounds" />
          </mxGeometry>
        </mxCell>
        <mxCell id="Bd5RzdEb4boKIMRvsXRX-69" value="Validation of bill" style="text;align=left;verticalAlign=top;spacingLeft=4;spacingRight=4;overflow=hidden;rotatable=0;points=[[0,0.5],[1,0.5]];portConstraint=eastwest;rounded=0;shadow=0;html=0;" parent="Bd5RzdEb4boKIMRvsXRX-67" vertex="1">
          <mxGeometry y="26" width="160" height="26" as="geometry" />
        </mxCell>
        <mxCell id="Bd5RzdEb4boKIMRvsXRX-76" value="" style="endArrow=classic;html=1;rounded=0;entryX=0.25;entryY=1;entryDx=0;entryDy=0;exitX=0.544;exitY=-0.019;exitDx=0;exitDy=0;exitPerimeter=0;" parent="WIyWlLk6GJQsqaUBKTNV-1" source="Bd5RzdEb4boKIMRvsXRX-62" target="Bd5RzdEb4boKIMRvsXRX-50" edge="1">
          <mxGeometry width="50" height="50" relative="1" as="geometry">
            <mxPoint x="240" y="880" as="sourcePoint" />
            <mxPoint x="290" y="830" as="targetPoint" />
          </mxGeometry>
        </mxCell>
        <mxCell id="Bd5RzdEb4boKIMRvsXRX-77" value="" style="endArrow=classic;html=1;rounded=0;entryX=1;entryY=0.5;entryDx=0;entryDy=0;exitX=0;exitY=0.5;exitDx=0;exitDy=0;" parent="WIyWlLk6GJQsqaUBKTNV-1" source="Bd5RzdEb4boKIMRvsXRX-58" target="Bd5RzdEb4boKIMRvsXRX-55" edge="1">
          <mxGeometry width="50" height="50" relative="1" as="geometry">
            <mxPoint x="524" y="840" as="sourcePoint" />
            <mxPoint x="574" y="790" as="targetPoint" />
          </mxGeometry>
        </mxCell>
        <mxCell id="Bd5RzdEb4boKIMRvsXRX-78" value="UserEndpoint" style="swimlane;fontStyle=2;align=center;verticalAlign=top;childLayout=stackLayout;horizontal=1;startSize=26;horizontalStack=0;resizeParent=1;resizeLast=0;collapsible=1;marginBottom=0;rounded=0;shadow=0;strokeWidth=1;fillColor=#b1ddf0;strokeColor=#10739e;" parent="WIyWlLk6GJQsqaUBKTNV-1" vertex="1">
          <mxGeometry x="1050" y="680" width="250" height="220" as="geometry">
            <mxRectangle x="1050" y="680" width="160" height="26" as="alternateBounds" />
          </mxGeometry>
        </mxCell>
        <mxCell id="Bd5RzdEb4boKIMRvsXRX-79" value="UserRespons(F namn, E namn, Id, Email)" style="text;align=left;verticalAlign=top;spacingLeft=4;spacingRight=4;overflow=hidden;rotatable=0;points=[[0,0.5],[1,0.5]];portConstraint=eastwest;" parent="Bd5RzdEb4boKIMRvsXRX-78" vertex="1">
          <mxGeometry y="26" width="250" height="26" as="geometry" />
        </mxCell>
        <mxCell id="Bd5RzdEb4boKIMRvsXRX-80" value="UserReqest(Email, Password)" style="text;align=left;verticalAlign=top;spacingLeft=4;spacingRight=4;overflow=hidden;rotatable=0;points=[[0,0.5],[1,0.5]];portConstraint=eastwest;rounded=0;shadow=0;html=0;" parent="Bd5RzdEb4boKIMRvsXRX-78" vertex="1">
          <mxGeometry y="52" width="250" height="26" as="geometry" />
        </mxCell>
        <mxCell id="Bd5RzdEb4boKIMRvsXRX-81" value="Sign up () API" style="text;align=left;verticalAlign=top;spacingLeft=4;spacingRight=4;overflow=hidden;rotatable=0;points=[[0,0.5],[1,0.5]];portConstraint=eastwest;rounded=0;shadow=0;html=0;" parent="Bd5RzdEb4boKIMRvsXRX-78" vertex="1">
          <mxGeometry y="78" width="250" height="26" as="geometry" />
        </mxCell>
        <mxCell id="Bd5RzdEb4boKIMRvsXRX-82" value="Sign In () API" style="text;align=left;verticalAlign=top;spacingLeft=4;spacingRight=4;overflow=hidden;rotatable=0;points=[[0,0.5],[1,0.5]];portConstraint=eastwest;rounded=0;shadow=0;html=0;" parent="Bd5RzdEb4boKIMRvsXRX-78" vertex="1">
          <mxGeometry y="104" width="250" height="26" as="geometry" />
        </mxCell>
        <mxCell id="Bd5RzdEb4boKIMRvsXRX-83" value="Update() API" style="text;align=left;verticalAlign=top;spacingLeft=4;spacingRight=4;overflow=hidden;rotatable=0;points=[[0,0.5],[1,0.5]];portConstraint=eastwest;rounded=0;shadow=0;html=0;" parent="Bd5RzdEb4boKIMRvsXRX-78" vertex="1">
          <mxGeometry y="130" width="250" height="26" as="geometry" />
        </mxCell>
        <mxCell id="Bd5RzdEb4boKIMRvsXRX-84" value="Remove() API" style="text;align=left;verticalAlign=top;spacingLeft=4;spacingRight=4;overflow=hidden;rotatable=0;points=[[0,0.5],[1,0.5]];portConstraint=eastwest;rounded=0;shadow=0;html=0;" parent="Bd5RzdEb4boKIMRvsXRX-78" vertex="1">
          <mxGeometry y="156" width="250" height="26" as="geometry" />
        </mxCell>
        <mxCell id="Bd5RzdEb4boKIMRvsXRX-85" value="Sign Out() API" style="text;align=left;verticalAlign=top;spacingLeft=4;spacingRight=4;overflow=hidden;rotatable=0;points=[[0,0.5],[1,0.5]];portConstraint=eastwest;rounded=0;shadow=0;html=0;" parent="Bd5RzdEb4boKIMRvsXRX-78" vertex="1">
          <mxGeometry y="182" width="250" height="26" as="geometry" />
        </mxCell>
        <mxCell id="Bd5RzdEb4boKIMRvsXRX-86" value="UserService" style="swimlane;fontStyle=2;align=center;verticalAlign=top;childLayout=stackLayout;horizontal=1;startSize=26;horizontalStack=0;resizeParent=1;resizeLast=0;collapsible=1;marginBottom=0;rounded=0;shadow=0;strokeWidth=1;fillColor=#b1ddf0;strokeColor=#10739e;" parent="WIyWlLk6GJQsqaUBKTNV-1" vertex="1">
          <mxGeometry x="1050" y="390" width="250" height="170" as="geometry">
            <mxRectangle x="1050" y="680" width="160" height="26" as="alternateBounds" />
          </mxGeometry>
        </mxCell>
        <mxCell id="Bd5RzdEb4boKIMRvsXRX-87" value="SignUp()" style="text;align=left;verticalAlign=top;spacingLeft=4;spacingRight=4;overflow=hidden;rotatable=0;points=[[0,0.5],[1,0.5]];portConstraint=eastwest;" parent="Bd5RzdEb4boKIMRvsXRX-86" vertex="1">
          <mxGeometry y="26" width="250" height="26" as="geometry" />
        </mxCell>
        <mxCell id="Bd5RzdEb4boKIMRvsXRX-88" value="Remove User()" style="text;align=left;verticalAlign=top;spacingLeft=4;spacingRight=4;overflow=hidden;rotatable=0;points=[[0,0.5],[1,0.5]];portConstraint=eastwest;rounded=0;shadow=0;html=0;" parent="Bd5RzdEb4boKIMRvsXRX-86" vertex="1">
          <mxGeometry y="52" width="250" height="26" as="geometry" />
        </mxCell>
        <mxCell id="Bd5RzdEb4boKIMRvsXRX-89" value="update user()" style="text;align=left;verticalAlign=top;spacingLeft=4;spacingRight=4;overflow=hidden;rotatable=0;points=[[0,0.5],[1,0.5]];portConstraint=eastwest;rounded=0;shadow=0;html=0;" parent="Bd5RzdEb4boKIMRvsXRX-86" vertex="1">
          <mxGeometry y="78" width="250" height="26" as="geometry" />
        </mxCell>
        <mxCell id="Bd5RzdEb4boKIMRvsXRX-90" value="Sign In" style="text;align=left;verticalAlign=top;spacingLeft=4;spacingRight=4;overflow=hidden;rotatable=0;points=[[0,0.5],[1,0.5]];portConstraint=eastwest;rounded=0;shadow=0;html=0;" parent="Bd5RzdEb4boKIMRvsXRX-86" vertex="1">
          <mxGeometry y="104" width="250" height="26" as="geometry" />
        </mxCell>
        <mxCell id="Bd5RzdEb4boKIMRvsXRX-91" value="Sing Out" style="text;align=left;verticalAlign=top;spacingLeft=4;spacingRight=4;overflow=hidden;rotatable=0;points=[[0,0.5],[1,0.5]];portConstraint=eastwest;rounded=0;shadow=0;html=0;" parent="Bd5RzdEb4boKIMRvsXRX-86" vertex="1">
          <mxGeometry y="130" width="250" height="26" as="geometry" />
        </mxCell>
        <mxCell id="Bd5RzdEb4boKIMRvsXRX-94" value="IUserService" style="swimlane;fontStyle=2;align=center;verticalAlign=top;childLayout=stackLayout;horizontal=1;startSize=26;horizontalStack=0;resizeParent=1;resizeLast=0;collapsible=1;marginBottom=0;rounded=0;shadow=0;strokeWidth=1;fillColor=#d0cee2;strokeColor=#56517e;" parent="WIyWlLk6GJQsqaUBKTNV-1" vertex="1">
          <mxGeometry x="1050" y="30" width="250" height="170" as="geometry">
            <mxRectangle x="1050" y="680" width="160" height="26" as="alternateBounds" />
          </mxGeometry>
        </mxCell>
        <mxCell id="Bd5RzdEb4boKIMRvsXRX-95" value="SignUp()" style="text;align=left;verticalAlign=top;spacingLeft=4;spacingRight=4;overflow=hidden;rotatable=0;points=[[0,0.5],[1,0.5]];portConstraint=eastwest;" parent="Bd5RzdEb4boKIMRvsXRX-94" vertex="1">
          <mxGeometry y="26" width="250" height="26" as="geometry" />
        </mxCell>
        <mxCell id="Bd5RzdEb4boKIMRvsXRX-96" value="Remove User()" style="text;align=left;verticalAlign=top;spacingLeft=4;spacingRight=4;overflow=hidden;rotatable=0;points=[[0,0.5],[1,0.5]];portConstraint=eastwest;rounded=0;shadow=0;html=0;" parent="Bd5RzdEb4boKIMRvsXRX-94" vertex="1">
          <mxGeometry y="52" width="250" height="26" as="geometry" />
        </mxCell>
        <mxCell id="Bd5RzdEb4boKIMRvsXRX-97" value="update user()" style="text;align=left;verticalAlign=top;spacingLeft=4;spacingRight=4;overflow=hidden;rotatable=0;points=[[0,0.5],[1,0.5]];portConstraint=eastwest;rounded=0;shadow=0;html=0;" parent="Bd5RzdEb4boKIMRvsXRX-94" vertex="1">
          <mxGeometry y="78" width="250" height="26" as="geometry" />
        </mxCell>
        <mxCell id="Bd5RzdEb4boKIMRvsXRX-98" value="Sign In" style="text;align=left;verticalAlign=top;spacingLeft=4;spacingRight=4;overflow=hidden;rotatable=0;points=[[0,0.5],[1,0.5]];portConstraint=eastwest;rounded=0;shadow=0;html=0;" parent="Bd5RzdEb4boKIMRvsXRX-94" vertex="1">
          <mxGeometry y="104" width="250" height="26" as="geometry" />
        </mxCell>
        <mxCell id="Bd5RzdEb4boKIMRvsXRX-99" value="Sing Out" style="text;align=left;verticalAlign=top;spacingLeft=4;spacingRight=4;overflow=hidden;rotatable=0;points=[[0,0.5],[1,0.5]];portConstraint=eastwest;rounded=0;shadow=0;html=0;" parent="Bd5RzdEb4boKIMRvsXRX-94" vertex="1">
          <mxGeometry y="130" width="250" height="26" as="geometry" />
        </mxCell>
        <mxCell id="Bd5RzdEb4boKIMRvsXRX-102" value="" style="endArrow=classic;html=1;rounded=0;exitX=0.5;exitY=1;exitDx=0;exitDy=0;entryX=0.5;entryY=0;entryDx=0;entryDy=0;" parent="WIyWlLk6GJQsqaUBKTNV-1" source="Bd5RzdEb4boKIMRvsXRX-94" target="Bd5RzdEb4boKIMRvsXRX-86" edge="1">
          <mxGeometry width="50" height="50" relative="1" as="geometry">
            <mxPoint x="1190" y="260" as="sourcePoint" />
            <mxPoint x="1240" y="210" as="targetPoint" />
          </mxGeometry>
        </mxCell>
        <mxCell id="Bd5RzdEb4boKIMRvsXRX-104" value="" style="endArrow=classic;html=1;rounded=0;exitX=0.5;exitY=1;exitDx=0;exitDy=0;entryX=0.5;entryY=0;entryDx=0;entryDy=0;" parent="WIyWlLk6GJQsqaUBKTNV-1" source="Bd5RzdEb4boKIMRvsXRX-86" target="Bd5RzdEb4boKIMRvsXRX-78" edge="1">
          <mxGeometry width="50" height="50" relative="1" as="geometry">
            <mxPoint x="1120" y="640" as="sourcePoint" />
            <mxPoint x="1170" y="590" as="targetPoint" />
          </mxGeometry>
        </mxCell>
        <mxCell id="Bd5RzdEb4boKIMRvsXRX-107" value="" style="curved=1;endArrow=classic;html=1;rounded=0;entryX=1;entryY=0;entryDx=0;entryDy=0;exitX=0;exitY=0.5;exitDx=0;exitDy=0;" parent="WIyWlLk6GJQsqaUBKTNV-1" source="Bd5RzdEb4boKIMRvsXRX-97" target="Bd5RzdEb4boKIMRvsXRX-1" edge="1">
          <mxGeometry width="50" height="50" relative="1" as="geometry">
            <mxPoint x="910" y="130" as="sourcePoint" />
            <mxPoint x="960" y="80" as="targetPoint" />
            <Array as="points">
              <mxPoint x="960" y="130" />
              <mxPoint x="860" />
            </Array>
          </mxGeometry>
        </mxCell>
        <mxCell id="Bd5RzdEb4boKIMRvsXRX-108" value="IAdminService" style="swimlane;fontStyle=2;align=center;verticalAlign=top;childLayout=stackLayout;horizontal=1;startSize=26;horizontalStack=0;resizeParent=1;resizeLast=0;collapsible=1;marginBottom=0;rounded=0;shadow=0;strokeWidth=1;fillColor=#d0cee2;strokeColor=#56517e;" parent="WIyWlLk6GJQsqaUBKTNV-1" vertex="1">
          <mxGeometry x="1360" y="24" width="250" height="186" as="geometry">
            <mxRectangle x="1050" y="680" width="160" height="26" as="alternateBounds" />
          </mxGeometry>
        </mxCell>
        <mxCell id="Bd5RzdEb4boKIMRvsXRX-109" value="SignUp ()" style="text;align=left;verticalAlign=top;spacingLeft=4;spacingRight=4;overflow=hidden;rotatable=0;points=[[0,0.5],[1,0.5]];portConstraint=eastwest;" parent="Bd5RzdEb4boKIMRvsXRX-108" vertex="1">
          <mxGeometry y="26" width="250" height="26" as="geometry" />
        </mxCell>
        <mxCell id="Bd5RzdEb4boKIMRvsXRX-110" value="Remove User()" style="text;align=left;verticalAlign=top;spacingLeft=4;spacingRight=4;overflow=hidden;rotatable=0;points=[[0,0.5],[1,0.5]];portConstraint=eastwest;rounded=0;shadow=0;html=0;" parent="Bd5RzdEb4boKIMRvsXRX-108" vertex="1">
          <mxGeometry y="52" width="250" height="26" as="geometry" />
        </mxCell>
        <mxCell id="Bd5RzdEb4boKIMRvsXRX-111" value="update user()" style="text;align=left;verticalAlign=top;spacingLeft=4;spacingRight=4;overflow=hidden;rotatable=0;points=[[0,0.5],[1,0.5]];portConstraint=eastwest;rounded=0;shadow=0;html=0;" parent="Bd5RzdEb4boKIMRvsXRX-108" vertex="1">
          <mxGeometry y="78" width="250" height="26" as="geometry" />
        </mxCell>
        <mxCell id="Bd5RzdEb4boKIMRvsXRX-112" value="Sign In()" style="text;align=left;verticalAlign=top;spacingLeft=4;spacingRight=4;overflow=hidden;rotatable=0;points=[[0,0.5],[1,0.5]];portConstraint=eastwest;rounded=0;shadow=0;html=0;" parent="Bd5RzdEb4boKIMRvsXRX-108" vertex="1">
          <mxGeometry y="104" width="250" height="26" as="geometry" />
        </mxCell>
        <mxCell id="Bd5RzdEb4boKIMRvsXRX-113" value="Sing Out()" style="text;align=left;verticalAlign=top;spacingLeft=4;spacingRight=4;overflow=hidden;rotatable=0;points=[[0,0.5],[1,0.5]];portConstraint=eastwest;rounded=0;shadow=0;html=0;" parent="Bd5RzdEb4boKIMRvsXRX-108" vertex="1">
          <mxGeometry y="130" width="250" height="26" as="geometry" />
        </mxCell>
        <mxCell id="Bd5RzdEb4boKIMRvsXRX-114" value="update Admin ()" style="text;align=left;verticalAlign=top;spacingLeft=4;spacingRight=4;overflow=hidden;rotatable=0;points=[[0,0.5],[1,0.5]];portConstraint=eastwest;rounded=0;shadow=0;html=0;" parent="Bd5RzdEb4boKIMRvsXRX-108" vertex="1">
          <mxGeometry y="156" width="250" height="26" as="geometry" />
        </mxCell>
        <mxCell id="Bd5RzdEb4boKIMRvsXRX-116" value="AdminService" style="swimlane;fontStyle=2;align=center;verticalAlign=top;childLayout=stackLayout;horizontal=1;startSize=26;horizontalStack=0;resizeParent=1;resizeLast=0;collapsible=1;marginBottom=0;rounded=0;shadow=0;strokeWidth=1;fillColor=#b1ddf0;strokeColor=#10739e;" parent="WIyWlLk6GJQsqaUBKTNV-1" vertex="1">
          <mxGeometry x="1360" y="390" width="250" height="182" as="geometry">
            <mxRectangle x="1050" y="680" width="160" height="26" as="alternateBounds" />
          </mxGeometry>
        </mxCell>
        <mxCell id="Bd5RzdEb4boKIMRvsXRX-117" value="SignUp()" style="text;align=left;verticalAlign=top;spacingLeft=4;spacingRight=4;overflow=hidden;rotatable=0;points=[[0,0.5],[1,0.5]];portConstraint=eastwest;" parent="Bd5RzdEb4boKIMRvsXRX-116" vertex="1">
          <mxGeometry y="26" width="250" height="26" as="geometry" />
        </mxCell>
        <mxCell id="Bd5RzdEb4boKIMRvsXRX-118" value="Remove User()" style="text;align=left;verticalAlign=top;spacingLeft=4;spacingRight=4;overflow=hidden;rotatable=0;points=[[0,0.5],[1,0.5]];portConstraint=eastwest;rounded=0;shadow=0;html=0;" parent="Bd5RzdEb4boKIMRvsXRX-116" vertex="1">
          <mxGeometry y="52" width="250" height="26" as="geometry" />
        </mxCell>
        <mxCell id="Bd5RzdEb4boKIMRvsXRX-119" value="update user()" style="text;align=left;verticalAlign=top;spacingLeft=4;spacingRight=4;overflow=hidden;rotatable=0;points=[[0,0.5],[1,0.5]];portConstraint=eastwest;rounded=0;shadow=0;html=0;" parent="Bd5RzdEb4boKIMRvsXRX-116" vertex="1">
          <mxGeometry y="78" width="250" height="26" as="geometry" />
        </mxCell>
        <mxCell id="Bd5RzdEb4boKIMRvsXRX-120" value="Sign In" style="text;align=left;verticalAlign=top;spacingLeft=4;spacingRight=4;overflow=hidden;rotatable=0;points=[[0,0.5],[1,0.5]];portConstraint=eastwest;rounded=0;shadow=0;html=0;" parent="Bd5RzdEb4boKIMRvsXRX-116" vertex="1">
          <mxGeometry y="104" width="250" height="26" as="geometry" />
        </mxCell>
        <mxCell id="Bd5RzdEb4boKIMRvsXRX-121" value="Sing Out" style="text;align=left;verticalAlign=top;spacingLeft=4;spacingRight=4;overflow=hidden;rotatable=0;points=[[0,0.5],[1,0.5]];portConstraint=eastwest;rounded=0;shadow=0;html=0;" parent="Bd5RzdEb4boKIMRvsXRX-116" vertex="1">
          <mxGeometry y="130" width="250" height="26" as="geometry" />
        </mxCell>
        <mxCell id="Bd5RzdEb4boKIMRvsXRX-122" value="Update Admin ()" style="text;align=left;verticalAlign=top;spacingLeft=4;spacingRight=4;overflow=hidden;rotatable=0;points=[[0,0.5],[1,0.5]];portConstraint=eastwest;rounded=0;shadow=0;html=0;" parent="Bd5RzdEb4boKIMRvsXRX-116" vertex="1">
          <mxGeometry y="156" width="250" height="26" as="geometry" />
        </mxCell>
        <mxCell id="Bd5RzdEb4boKIMRvsXRX-123" value="UserEndpoint" style="swimlane;fontStyle=2;align=center;verticalAlign=top;childLayout=stackLayout;horizontal=1;startSize=26;horizontalStack=0;resizeParent=1;resizeLast=0;collapsible=1;marginBottom=0;rounded=0;shadow=0;strokeWidth=1;fillColor=#b1ddf0;strokeColor=#10739e;" parent="WIyWlLk6GJQsqaUBKTNV-1" vertex="1">
          <mxGeometry x="1360" y="680" width="250" height="234" as="geometry">
            <mxRectangle x="1050" y="680" width="160" height="26" as="alternateBounds" />
          </mxGeometry>
        </mxCell>
        <mxCell id="Bd5RzdEb4boKIMRvsXRX-124" value="UserRespons(F namn, E namn, Id, Email)" style="text;align=left;verticalAlign=top;spacingLeft=4;spacingRight=4;overflow=hidden;rotatable=0;points=[[0,0.5],[1,0.5]];portConstraint=eastwest;" parent="Bd5RzdEb4boKIMRvsXRX-123" vertex="1">
          <mxGeometry y="26" width="250" height="26" as="geometry" />
        </mxCell>
        <mxCell id="Bd5RzdEb4boKIMRvsXRX-125" value="UserReqest(Email, Password)" style="text;align=left;verticalAlign=top;spacingLeft=4;spacingRight=4;overflow=hidden;rotatable=0;points=[[0,0.5],[1,0.5]];portConstraint=eastwest;rounded=0;shadow=0;html=0;" parent="Bd5RzdEb4boKIMRvsXRX-123" vertex="1">
          <mxGeometry y="52" width="250" height="26" as="geometry" />
        </mxCell>
        <mxCell id="Bd5RzdEb4boKIMRvsXRX-126" value="Sign up () API" style="text;align=left;verticalAlign=top;spacingLeft=4;spacingRight=4;overflow=hidden;rotatable=0;points=[[0,0.5],[1,0.5]];portConstraint=eastwest;rounded=0;shadow=0;html=0;" parent="Bd5RzdEb4boKIMRvsXRX-123" vertex="1">
          <mxGeometry y="78" width="250" height="26" as="geometry" />
        </mxCell>
        <mxCell id="Bd5RzdEb4boKIMRvsXRX-127" value="Sign In () API" style="text;align=left;verticalAlign=top;spacingLeft=4;spacingRight=4;overflow=hidden;rotatable=0;points=[[0,0.5],[1,0.5]];portConstraint=eastwest;rounded=0;shadow=0;html=0;" parent="Bd5RzdEb4boKIMRvsXRX-123" vertex="1">
          <mxGeometry y="104" width="250" height="26" as="geometry" />
        </mxCell>
        <mxCell id="Bd5RzdEb4boKIMRvsXRX-128" value="Update() API" style="text;align=left;verticalAlign=top;spacingLeft=4;spacingRight=4;overflow=hidden;rotatable=0;points=[[0,0.5],[1,0.5]];portConstraint=eastwest;rounded=0;shadow=0;html=0;" parent="Bd5RzdEb4boKIMRvsXRX-123" vertex="1">
          <mxGeometry y="130" width="250" height="26" as="geometry" />
        </mxCell>
        <mxCell id="Bd5RzdEb4boKIMRvsXRX-129" value="Remove() API" style="text;align=left;verticalAlign=top;spacingLeft=4;spacingRight=4;overflow=hidden;rotatable=0;points=[[0,0.5],[1,0.5]];portConstraint=eastwest;rounded=0;shadow=0;html=0;" parent="Bd5RzdEb4boKIMRvsXRX-123" vertex="1">
          <mxGeometry y="156" width="250" height="26" as="geometry" />
        </mxCell>
        <mxCell id="Bd5RzdEb4boKIMRvsXRX-130" value="Sign Out() API" style="text;align=left;verticalAlign=top;spacingLeft=4;spacingRight=4;overflow=hidden;rotatable=0;points=[[0,0.5],[1,0.5]];portConstraint=eastwest;rounded=0;shadow=0;html=0;" parent="Bd5RzdEb4boKIMRvsXRX-123" vertex="1">
          <mxGeometry y="182" width="250" height="26" as="geometry" />
        </mxCell>
        <mxCell id="Bd5RzdEb4boKIMRvsXRX-131" value="Update Admin() API" style="text;align=left;verticalAlign=top;spacingLeft=4;spacingRight=4;overflow=hidden;rotatable=0;points=[[0,0.5],[1,0.5]];portConstraint=eastwest;rounded=0;shadow=0;html=0;" parent="Bd5RzdEb4boKIMRvsXRX-123" vertex="1">
          <mxGeometry y="208" width="250" height="26" as="geometry" />
        </mxCell>
        <mxCell id="Bd5RzdEb4boKIMRvsXRX-132" value="" style="endArrow=classic;html=1;rounded=0;entryX=0.5;entryY=0;entryDx=0;entryDy=0;exitX=0.5;exitY=1.038;exitDx=0;exitDy=0;exitPerimeter=0;" parent="WIyWlLk6GJQsqaUBKTNV-1" source="Bd5RzdEb4boKIMRvsXRX-122" target="Bd5RzdEb4boKIMRvsXRX-123" edge="1">
          <mxGeometry width="50" height="50" relative="1" as="geometry">
            <mxPoint x="1485" y="600" as="sourcePoint" />
            <mxPoint x="1484.5" y="690" as="targetPoint" />
          </mxGeometry>
        </mxCell>
        <mxCell id="Bd5RzdEb4boKIMRvsXRX-133" value="" style="endArrow=classic;html=1;rounded=0;exitX=0.436;exitY=1.192;exitDx=0;exitDy=0;entryX=0.5;entryY=0;entryDx=0;entryDy=0;exitPerimeter=0;" parent="WIyWlLk6GJQsqaUBKTNV-1" source="Bd5RzdEb4boKIMRvsXRX-114" target="Bd5RzdEb4boKIMRvsXRX-116" edge="1">
          <mxGeometry width="50" height="50" relative="1" as="geometry">
            <mxPoint x="1484.5" y="210" as="sourcePoint" />
            <mxPoint x="1484.5" y="400" as="targetPoint" />
          </mxGeometry>
        </mxCell>
        <mxCell id="Bd5RzdEb4boKIMRvsXRX-134" value="" style="curved=1;endArrow=classic;html=1;rounded=0;entryX=0.55;entryY=-0.017;entryDx=0;entryDy=0;entryPerimeter=0;exitX=0;exitY=0;exitDx=0;exitDy=0;" parent="WIyWlLk6GJQsqaUBKTNV-1" source="Bd5RzdEb4boKIMRvsXRX-108" target="Bd5RzdEb4boKIMRvsXRX-1" edge="1">
          <mxGeometry width="50" height="50" relative="1" as="geometry">
            <mxPoint x="1310" y="60" as="sourcePoint" />
            <mxPoint x="1360" y="10" as="targetPoint" />
            <Array as="points">
              <mxPoint x="1330" y="-40" />
              <mxPoint x="1260" y="-60" />
              <mxPoint x="710" y="-150" />
              <mxPoint x="510" y="-110" />
            </Array>
          </mxGeometry>
        </mxCell>
        <mxCell id="Bd5RzdEb4boKIMRvsXRX-136" value="IBillServices" style="swimlane;fontStyle=2;align=center;verticalAlign=top;childLayout=stackLayout;horizontal=1;startSize=26;horizontalStack=0;resizeParent=1;resizeLast=0;collapsible=1;marginBottom=0;rounded=0;shadow=0;strokeWidth=1;fillColor=#b1ddf0;strokeColor=#10739e;" parent="WIyWlLk6GJQsqaUBKTNV-1" vertex="1">
          <mxGeometry x="1680" y="24" width="250" height="186" as="geometry">
            <mxRectangle x="1050" y="680" width="160" height="26" as="alternateBounds" />
          </mxGeometry>
        </mxCell>
        <mxCell id="Bd5RzdEb4boKIMRvsXRX-137" value="Add Bill ()" style="text;align=left;verticalAlign=top;spacingLeft=4;spacingRight=4;overflow=hidden;rotatable=0;points=[[0,0.5],[1,0.5]];portConstraint=eastwest;" parent="Bd5RzdEb4boKIMRvsXRX-136" vertex="1">
          <mxGeometry y="26" width="250" height="26" as="geometry" />
        </mxCell>
        <mxCell id="Bd5RzdEb4boKIMRvsXRX-138" value="Remove Bill()" style="text;align=left;verticalAlign=top;spacingLeft=4;spacingRight=4;overflow=hidden;rotatable=0;points=[[0,0.5],[1,0.5]];portConstraint=eastwest;rounded=0;shadow=0;html=0;" parent="Bd5RzdEb4boKIMRvsXRX-136" vertex="1">
          <mxGeometry y="52" width="250" height="26" as="geometry" />
        </mxCell>
        <mxCell id="Bd5RzdEb4boKIMRvsXRX-140" value="Update Adress(string Adress)" style="text;align=left;verticalAlign=top;spacingLeft=4;spacingRight=4;overflow=hidden;rotatable=0;points=[[0,0.5],[1,0.5]];portConstraint=eastwest;rounded=0;shadow=0;html=0;" parent="Bd5RzdEb4boKIMRvsXRX-136" vertex="1">
          <mxGeometry y="78" width="250" height="26" as="geometry" />
        </mxCell>
        <mxCell id="Bd5RzdEb4boKIMRvsXRX-143" value="OrderHistori()" style="text;align=left;verticalAlign=top;spacingLeft=4;spacingRight=4;overflow=hidden;rotatable=0;points=[[0,0.5],[1,0.5]];portConstraint=eastwest;rounded=0;shadow=0;html=0;" parent="Bd5RzdEb4boKIMRvsXRX-136" vertex="1">
          <mxGeometry y="104" width="250" height="26" as="geometry" />
        </mxCell>
        <mxCell id="Bd5RzdEb4boKIMRvsXRX-144" value="BillServices" style="swimlane;fontStyle=2;align=center;verticalAlign=top;childLayout=stackLayout;horizontal=1;startSize=26;horizontalStack=0;resizeParent=1;resizeLast=0;collapsible=1;marginBottom=0;rounded=0;shadow=0;strokeWidth=1;fillColor=#b1ddf0;strokeColor=#10739e;" parent="WIyWlLk6GJQsqaUBKTNV-1" vertex="1">
          <mxGeometry x="1690" y="390" width="250" height="186" as="geometry">
            <mxRectangle x="1050" y="680" width="160" height="26" as="alternateBounds" />
          </mxGeometry>
        </mxCell>
        <mxCell id="Bd5RzdEb4boKIMRvsXRX-145" value="Add Bill ()" style="text;align=left;verticalAlign=top;spacingLeft=4;spacingRight=4;overflow=hidden;rotatable=0;points=[[0,0.5],[1,0.5]];portConstraint=eastwest;" parent="Bd5RzdEb4boKIMRvsXRX-144" vertex="1">
          <mxGeometry y="26" width="250" height="26" as="geometry" />
        </mxCell>
        <mxCell id="Bd5RzdEb4boKIMRvsXRX-146" value="Remove Bill()" style="text;align=left;verticalAlign=top;spacingLeft=4;spacingRight=4;overflow=hidden;rotatable=0;points=[[0,0.5],[1,0.5]];portConstraint=eastwest;rounded=0;shadow=0;html=0;" parent="Bd5RzdEb4boKIMRvsXRX-144" vertex="1">
          <mxGeometry y="52" width="250" height="26" as="geometry" />
        </mxCell>
        <mxCell id="Bd5RzdEb4boKIMRvsXRX-147" value="Update Adress(string Adress)" style="text;align=left;verticalAlign=top;spacingLeft=4;spacingRight=4;overflow=hidden;rotatable=0;points=[[0,0.5],[1,0.5]];portConstraint=eastwest;rounded=0;shadow=0;html=0;" parent="Bd5RzdEb4boKIMRvsXRX-144" vertex="1">
          <mxGeometry y="78" width="250" height="26" as="geometry" />
        </mxCell>
        <mxCell id="Bd5RzdEb4boKIMRvsXRX-148" value="OrderHistori()" style="text;align=left;verticalAlign=top;spacingLeft=4;spacingRight=4;overflow=hidden;rotatable=0;points=[[0,0.5],[1,0.5]];portConstraint=eastwest;rounded=0;shadow=0;html=0;" parent="Bd5RzdEb4boKIMRvsXRX-144" vertex="1">
          <mxGeometry y="104" width="250" height="26" as="geometry" />
        </mxCell>
        <mxCell id="Bd5RzdEb4boKIMRvsXRX-156" value="BillEndpoint" style="swimlane;fontStyle=2;align=center;verticalAlign=top;childLayout=stackLayout;horizontal=1;startSize=26;horizontalStack=0;resizeParent=1;resizeLast=0;collapsible=1;marginBottom=0;rounded=0;shadow=0;strokeWidth=1;fillColor=#b1ddf0;strokeColor=#10739e;" parent="WIyWlLk6GJQsqaUBKTNV-1" vertex="1">
          <mxGeometry x="1680" y="680" width="290" height="234" as="geometry">
            <mxRectangle x="1050" y="680" width="160" height="26" as="alternateBounds" />
          </mxGeometry>
        </mxCell>
        <mxCell id="Bd5RzdEb4boKIMRvsXRX-157" value="BillRespons(Date Time, F &amp;E namn, Id, Email, Total)" style="text;align=left;verticalAlign=top;spacingLeft=4;spacingRight=4;overflow=hidden;rotatable=0;points=[[0,0.5],[1,0.5]];portConstraint=eastwest;" parent="Bd5RzdEb4boKIMRvsXRX-156" vertex="1">
          <mxGeometry y="26" width="290" height="26" as="geometry" />
        </mxCell>
        <mxCell id="Bd5RzdEb4boKIMRvsXRX-158" value="UserReqest(Email, Tota, Adress, F&amp;E Namnl)" style="text;align=left;verticalAlign=top;spacingLeft=4;spacingRight=4;overflow=hidden;rotatable=0;points=[[0,0.5],[1,0.5]];portConstraint=eastwest;rounded=0;shadow=0;html=0;" parent="Bd5RzdEb4boKIMRvsXRX-156" vertex="1">
          <mxGeometry y="52" width="290" height="26" as="geometry" />
        </mxCell>
        <mxCell id="Bd5RzdEb4boKIMRvsXRX-159" value="Add Bill() API" style="text;align=left;verticalAlign=top;spacingLeft=4;spacingRight=4;overflow=hidden;rotatable=0;points=[[0,0.5],[1,0.5]];portConstraint=eastwest;rounded=0;shadow=0;html=0;" parent="Bd5RzdEb4boKIMRvsXRX-156" vertex="1">
          <mxGeometry y="78" width="290" height="26" as="geometry" />
        </mxCell>
        <mxCell id="Bd5RzdEb4boKIMRvsXRX-160" value="Remove Bill() API" style="text;align=left;verticalAlign=top;spacingLeft=4;spacingRight=4;overflow=hidden;rotatable=0;points=[[0,0.5],[1,0.5]];portConstraint=eastwest;rounded=0;shadow=0;html=0;" parent="Bd5RzdEb4boKIMRvsXRX-156" vertex="1">
          <mxGeometry y="104" width="290" height="26" as="geometry" />
        </mxCell>
        <mxCell id="Bd5RzdEb4boKIMRvsXRX-161" value="Update Adress(string adress) API" style="text;align=left;verticalAlign=top;spacingLeft=4;spacingRight=4;overflow=hidden;rotatable=0;points=[[0,0.5],[1,0.5]];portConstraint=eastwest;rounded=0;shadow=0;html=0;" parent="Bd5RzdEb4boKIMRvsXRX-156" vertex="1">
          <mxGeometry y="130" width="290" height="26" as="geometry" />
        </mxCell>
        <mxCell id="Bd5RzdEb4boKIMRvsXRX-162" value="OrderHistori()" style="text;align=left;verticalAlign=top;spacingLeft=4;spacingRight=4;overflow=hidden;rotatable=0;points=[[0,0.5],[1,0.5]];portConstraint=eastwest;rounded=0;shadow=0;html=0;" parent="Bd5RzdEb4boKIMRvsXRX-156" vertex="1">
          <mxGeometry y="156" width="290" height="26" as="geometry" />
        </mxCell>
        <mxCell id="Bd5RzdEb4boKIMRvsXRX-165" value="" style="endArrow=classic;html=1;rounded=0;entryX=0.477;entryY=0.004;entryDx=0;entryDy=0;exitX=0.5;exitY=1;exitDx=0;exitDy=0;entryPerimeter=0;" parent="WIyWlLk6GJQsqaUBKTNV-1" source="Bd5RzdEb4boKIMRvsXRX-144" target="Bd5RzdEb4boKIMRvsXRX-156" edge="1">
          <mxGeometry width="50" height="50" relative="1" as="geometry">
            <mxPoint x="1814.47" y="576" as="sourcePoint" />
            <mxPoint x="1814.47" y="683" as="targetPoint" />
          </mxGeometry>
        </mxCell>
        <mxCell id="Bd5RzdEb4boKIMRvsXRX-166" value="" style="endArrow=classic;html=1;rounded=0;entryX=0.463;entryY=0.002;entryDx=0;entryDy=0;exitX=0.5;exitY=1;exitDx=0;exitDy=0;entryPerimeter=0;" parent="WIyWlLk6GJQsqaUBKTNV-1" source="Bd5RzdEb4boKIMRvsXRX-136" target="Bd5RzdEb4boKIMRvsXRX-144" edge="1">
          <mxGeometry width="50" height="50" relative="1" as="geometry">
            <mxPoint x="1790" y="230" as="sourcePoint" />
            <mxPoint x="1823" y="389" as="targetPoint" />
          </mxGeometry>
        </mxCell>
        <mxCell id="Bd5RzdEb4boKIMRvsXRX-167" value="" style="curved=1;endArrow=classic;html=1;rounded=0;entryX=0.25;entryY=0;entryDx=0;entryDy=0;exitX=0.473;exitY=0.006;exitDx=0;exitDy=0;exitPerimeter=0;" parent="WIyWlLk6GJQsqaUBKTNV-1" source="Bd5RzdEb4boKIMRvsXRX-136" target="Bd5RzdEb4boKIMRvsXRX-1" edge="1">
          <mxGeometry width="50" height="50" relative="1" as="geometry">
            <mxPoint x="1780" as="sourcePoint" />
            <mxPoint x="430" y="-80" as="targetPoint" />
            <Array as="points">
              <mxPoint x="1760" y="-80" />
              <mxPoint x="1560" y="-150" />
              <mxPoint x="690" y="-330" />
              <mxPoint x="454" y="-70" />
            </Array>
          </mxGeometry>
        </mxCell>
      </root>
    </mxGraphModel>
  </diagram>
  <diagram name="UML" id="J8Q_SqKENx2KQ0LRMKBQ">
    <mxGraphModel dx="1247" dy="1854" grid="1" gridSize="10" guides="1" tooltips="1" connect="1" arrows="1" fold="1" page="1" pageScale="1" pageWidth="827" pageHeight="1169" math="0" shadow="0">
      <root>
        <mxCell id="LkCjWB3VLu-f4ieXYzwb-0" />
        <mxCell id="LkCjWB3VLu-f4ieXYzwb-1" parent="LkCjWB3VLu-f4ieXYzwb-0" />
        <mxCell id="LkCjWB3VLu-f4ieXYzwb-118" value="" style="curved=1;endArrow=classic;html=1;rounded=0;entryX=0.25;entryY=0;entryDx=0;entryDy=0;exitX=0.473;exitY=0.006;exitDx=0;exitDy=0;exitPerimeter=0;" edge="1" parent="LkCjWB3VLu-f4ieXYzwb-1" source="LkCjWB3VLu-f4ieXYzwb-99">
          <mxGeometry width="50" height="50" relative="1" as="geometry">
            <mxPoint x="1780" as="sourcePoint" />
            <mxPoint x="454" y="10" as="targetPoint" />
            <Array as="points">
              <mxPoint x="1760" y="-80" />
              <mxPoint x="1560" y="-150" />
              <mxPoint x="690" y="-330" />
              <mxPoint x="454" y="-70" />
            </Array>
          </mxGeometry>
        </mxCell>
        <mxCell id="0PfcX5Wf1fvZ7v-b0y8k-30" value="Admin&lt;div&gt;&lt;br&gt;&lt;/div&gt;" style="shape=umlActor;verticalLabelPosition=bottom;verticalAlign=top;html=1;" vertex="1" parent="LkCjWB3VLu-f4ieXYzwb-1">
          <mxGeometry x="56" y="-230" width="30" height="60" as="geometry" />
        </mxCell>
        <mxCell id="0PfcX5Wf1fvZ7v-b0y8k-31" value="CMS/sign in&amp;nbsp;" style="ellipse;whiteSpace=wrap;html=1;" vertex="1" parent="LkCjWB3VLu-f4ieXYzwb-1">
          <mxGeometry x="296" y="-230" width="180" height="80" as="geometry" />
        </mxCell>
        <mxCell id="0PfcX5Wf1fvZ7v-b0y8k-33" value="Admin" style="endArrow=open;endSize=12;dashed=1;html=1;rounded=0;exitX=0.5;exitY=0.5;exitDx=0;exitDy=0;exitPerimeter=0;entryX=0;entryY=0.5;entryDx=0;entryDy=0;" edge="1" parent="LkCjWB3VLu-f4ieXYzwb-1" source="0PfcX5Wf1fvZ7v-b0y8k-30" target="0PfcX5Wf1fvZ7v-b0y8k-31">
          <mxGeometry width="160" relative="1" as="geometry">
            <mxPoint x="76" y="-200" as="sourcePoint" />
            <mxPoint x="236" y="-200" as="targetPoint" />
          </mxGeometry>
        </mxCell>
        <mxCell id="0PfcX5Wf1fvZ7v-b0y8k-34" value="create course" style="ellipse;whiteSpace=wrap;html=1;" vertex="1" parent="LkCjWB3VLu-f4ieXYzwb-1">
          <mxGeometry x="573.5" y="-230" width="180" height="80" as="geometry" />
        </mxCell>
        <mxCell id="0PfcX5Wf1fvZ7v-b0y8k-35" value="Extends" style="endArrow=block;endSize=16;endFill=0;html=1;rounded=0;exitX=1;exitY=0.5;exitDx=0;exitDy=0;entryX=0;entryY=0.5;entryDx=0;entryDy=0;" edge="1" parent="LkCjWB3VLu-f4ieXYzwb-1" source="0PfcX5Wf1fvZ7v-b0y8k-31" target="0PfcX5Wf1fvZ7v-b0y8k-34">
          <mxGeometry width="160" relative="1" as="geometry">
            <mxPoint x="486" y="-190" as="sourcePoint" />
            <mxPoint x="646" y="-190" as="targetPoint" />
          </mxGeometry>
        </mxCell>
        <mxCell id="0PfcX5Wf1fvZ7v-b0y8k-37" value="update course" style="ellipse;whiteSpace=wrap;html=1;" vertex="1" parent="LkCjWB3VLu-f4ieXYzwb-1">
          <mxGeometry x="586" y="-130" width="180" height="80" as="geometry" />
        </mxCell>
        <mxCell id="0PfcX5Wf1fvZ7v-b0y8k-38" value="Extends" style="endArrow=block;endSize=16;endFill=0;html=1;rounded=0;exitX=1;exitY=1;exitDx=0;exitDy=0;entryX=0;entryY=0;entryDx=0;entryDy=0;" edge="1" parent="LkCjWB3VLu-f4ieXYzwb-1" source="0PfcX5Wf1fvZ7v-b0y8k-31" target="0PfcX5Wf1fvZ7v-b0y8k-37">
          <mxGeometry width="160" relative="1" as="geometry">
            <mxPoint x="406" y="-100" as="sourcePoint" />
            <mxPoint x="566" y="-100" as="targetPoint" />
          </mxGeometry>
        </mxCell>
        <mxCell id="0PfcX5Wf1fvZ7v-b0y8k-39" value="Delete course" style="ellipse;whiteSpace=wrap;html=1;" vertex="1" parent="LkCjWB3VLu-f4ieXYzwb-1">
          <mxGeometry x="591" y="-20" width="180" height="80" as="geometry" />
        </mxCell>
        <mxCell id="0PfcX5Wf1fvZ7v-b0y8k-40" value="Extends" style="endArrow=block;endSize=16;endFill=0;html=1;rounded=0;exitX=0.5;exitY=1;exitDx=0;exitDy=0;entryX=0;entryY=0;entryDx=0;entryDy=0;" edge="1" parent="LkCjWB3VLu-f4ieXYzwb-1" source="0PfcX5Wf1fvZ7v-b0y8k-31" target="0PfcX5Wf1fvZ7v-b0y8k-39">
          <mxGeometry width="160" relative="1" as="geometry">
            <mxPoint x="356" y="-100" as="sourcePoint" />
            <mxPoint x="516" y="-100" as="targetPoint" />
          </mxGeometry>
        </mxCell>
        <mxCell id="0PfcX5Wf1fvZ7v-b0y8k-44" value="" style="ellipse;html=1;shape=endState;fillColor=#000000;strokeColor=#ff0000;" vertex="1" parent="LkCjWB3VLu-f4ieXYzwb-1">
          <mxGeometry x="446" y="80" width="30" height="30" as="geometry" />
        </mxCell>
      </root>
    </mxGraphModel>
  </diagram>
  <diagram id="lx7nONUFblfk3WqLEBGl" name="UML User">
    <mxGraphModel dx="683" dy="1475" grid="1" gridSize="10" guides="1" tooltips="1" connect="1" arrows="1" fold="1" page="1" pageScale="1" pageWidth="850" pageHeight="1100" math="0" shadow="0">
      <root>
        <mxCell id="0" />
        <mxCell id="1" parent="0" />
        <mxCell id="7vPjs_VQFnJnU6PhSqXh-3" style="edgeStyle=orthogonalEdgeStyle;rounded=0;orthogonalLoop=1;jettySize=auto;html=1;exitX=1;exitY=0.5;exitDx=0;exitDy=0;" edge="1" parent="1" target="7vPjs_VQFnJnU6PhSqXh-5">
          <mxGeometry relative="1" as="geometry">
            <mxPoint x="502" y="165" as="sourcePoint" />
          </mxGeometry>
        </mxCell>
        <mxCell id="7vPjs_VQFnJnU6PhSqXh-16" value="yes" style="edgeStyle=orthogonalEdgeStyle;html=1;align=left;verticalAlign=top;endArrow=open;endSize=8;strokeColor=#ff0000;rounded=0;entryX=0.5;entryY=0;entryDx=0;entryDy=0;" edge="1" parent="1" target="7vPjs_VQFnJnU6PhSqXh-7">
          <mxGeometry x="-1" relative="1" as="geometry">
            <mxPoint x="610" y="230" as="targetPoint" />
            <mxPoint x="692" y="276.79613785115407" as="sourcePoint" />
          </mxGeometry>
        </mxCell>
        <mxCell id="7vPjs_VQFnJnU6PhSqXh-32" style="edgeStyle=orthogonalEdgeStyle;rounded=0;orthogonalLoop=1;jettySize=auto;html=1;exitX=1;exitY=0.5;exitDx=0;exitDy=0;" edge="1" parent="1" source="7vPjs_VQFnJnU6PhSqXh-33" target="7vPjs_VQFnJnU6PhSqXh-34">
          <mxGeometry relative="1" as="geometry" />
        </mxCell>
        <mxCell id="7vPjs_VQFnJnU6PhSqXh-33" value="search course" style="ellipse;whiteSpace=wrap;html=1;" vertex="1" parent="1">
          <mxGeometry x="345" y="-750" width="210" height="70" as="geometry" />
        </mxCell>
        <mxCell id="7vPjs_VQFnJnU6PhSqXh-34" value="course page" style="ellipse;whiteSpace=wrap;html=1;" vertex="1" parent="1">
          <mxGeometry x="630" y="-752.5" width="210" height="75" as="geometry" />
        </mxCell>
        <mxCell id="7vPjs_VQFnJnU6PhSqXh-35" style="edgeStyle=orthogonalEdgeStyle;rounded=0;orthogonalLoop=1;jettySize=auto;html=1;exitX=0.5;exitY=1;exitDx=0;exitDy=0;entryX=0.5;entryY=0;entryDx=0;entryDy=0;" edge="1" parent="1" source="7vPjs_VQFnJnU6PhSqXh-36" target="7vPjs_VQFnJnU6PhSqXh-52">
          <mxGeometry relative="1" as="geometry" />
        </mxCell>
        <mxCell id="7vPjs_VQFnJnU6PhSqXh-36" value="Sign In /Sign up" style="ellipse;whiteSpace=wrap;html=1;" vertex="1" parent="1">
          <mxGeometry x="625" y="-530" width="215" height="80" as="geometry" />
        </mxCell>
        <mxCell id="7vPjs_VQFnJnU6PhSqXh-37" value="Use" style="endArrow=open;endSize=12;dashed=1;html=1;rounded=0;exitX=0.5;exitY=0.5;exitDx=0;exitDy=0;exitPerimeter=0;entryX=0;entryY=0.5;entryDx=0;entryDy=0;" edge="1" parent="1" target="7vPjs_VQFnJnU6PhSqXh-42" source="gZQf5YCqBlKgvPggh5uA-1">
          <mxGeometry width="160" relative="1" as="geometry">
            <mxPoint x="110" y="-730" as="sourcePoint" />
            <mxPoint x="315" y="-710" as="targetPoint" />
          </mxGeometry>
        </mxCell>
        <mxCell id="7vPjs_VQFnJnU6PhSqXh-38" style="edgeStyle=orthogonalEdgeStyle;rounded=0;orthogonalLoop=1;jettySize=auto;html=1;exitX=0.5;exitY=1;exitDx=0;exitDy=0;entryX=0.5;entryY=0;entryDx=0;entryDy=0;" edge="1" parent="1" source="7vPjs_VQFnJnU6PhSqXh-39" target="7vPjs_VQFnJnU6PhSqXh-33">
          <mxGeometry relative="1" as="geometry" />
        </mxCell>
        <mxCell id="7vPjs_VQFnJnU6PhSqXh-39" value="landing page" style="ellipse;whiteSpace=wrap;html=1;" vertex="1" parent="1">
          <mxGeometry x="595" y="-910" width="210" height="80" as="geometry" />
        </mxCell>
        <mxCell id="7vPjs_VQFnJnU6PhSqXh-40" value="" style="ellipse;html=1;shape=startState;fillColor=#000000;strokeColor=#ff0000;" vertex="1" parent="1">
          <mxGeometry x="510" y="-980" width="30" height="30" as="geometry" />
        </mxCell>
        <mxCell id="7vPjs_VQFnJnU6PhSqXh-41" value="" style="edgeStyle=orthogonalEdgeStyle;html=1;verticalAlign=bottom;endArrow=open;endSize=8;strokeColor=#ff0000;rounded=0;exitX=0.5;exitY=1;exitDx=0;exitDy=0;entryX=0.461;entryY=0.015;entryDx=0;entryDy=0;entryPerimeter=0;" edge="1" parent="1" source="7vPjs_VQFnJnU6PhSqXh-40" target="7vPjs_VQFnJnU6PhSqXh-39">
          <mxGeometry relative="1" as="geometry">
            <mxPoint x="590" y="-790" as="targetPoint" />
          </mxGeometry>
        </mxCell>
        <mxCell id="7vPjs_VQFnJnU6PhSqXh-42" value="search for Tuc shopping" style="ellipse;whiteSpace=wrap;html=1;" vertex="1" parent="1">
          <mxGeometry x="455" y="-1050" width="140" height="70" as="geometry" />
        </mxCell>
        <mxCell id="7vPjs_VQFnJnU6PhSqXh-43" value="&lt;h5&gt;need to sign in&lt;/h5&gt;" style="rhombus;whiteSpace=wrap;html=1;fontColor=#000000;fillColor=#ffffc0;strokeColor=#ff0000;rotation=-2;" vertex="1" parent="1">
          <mxGeometry x="702.5" y="-662.5" width="85" height="60" as="geometry" />
        </mxCell>
        <mxCell id="7vPjs_VQFnJnU6PhSqXh-44" value="no" style="edgeStyle=orthogonalEdgeStyle;html=1;align=left;verticalAlign=bottom;endArrow=open;endSize=8;strokeColor=#ff0000;rounded=0;entryX=0.5;entryY=0;entryDx=0;entryDy=0;" edge="1" parent="1" target="7vPjs_VQFnJnU6PhSqXh-47">
          <mxGeometry x="-0.7241" relative="1" as="geometry">
            <mxPoint x="575" y="-475" as="targetPoint" />
            <mxPoint x="695" y="-630" as="sourcePoint" />
            <Array as="points">
              <mxPoint x="695" y="-629" />
              <mxPoint x="435" y="-629" />
            </Array>
            <mxPoint as="offset" />
          </mxGeometry>
        </mxCell>
        <mxCell id="7vPjs_VQFnJnU6PhSqXh-45" value="yes" style="edgeStyle=orthogonalEdgeStyle;html=1;align=left;verticalAlign=top;endArrow=open;endSize=8;strokeColor=#ff0000;rounded=0;entryX=0.5;entryY=0;entryDx=0;entryDy=0;" edge="1" parent="1" source="7vPjs_VQFnJnU6PhSqXh-43" target="7vPjs_VQFnJnU6PhSqXh-36">
          <mxGeometry x="-1" relative="1" as="geometry">
            <mxPoint x="675" y="-550" as="targetPoint" />
          </mxGeometry>
        </mxCell>
        <mxCell id="7vPjs_VQFnJnU6PhSqXh-46" value="Use" style="endArrow=open;endSize=12;dashed=1;html=1;rounded=0;exitX=0.5;exitY=0.5;exitDx=0;exitDy=0;exitPerimeter=0;entryX=0;entryY=0.5;entryDx=0;entryDy=0;" edge="1" parent="1" target="7vPjs_VQFnJnU6PhSqXh-39" source="gZQf5YCqBlKgvPggh5uA-1">
          <mxGeometry width="160" relative="1" as="geometry">
            <mxPoint x="110" y="-730" as="sourcePoint" />
            <mxPoint x="405" y="-985" as="targetPoint" />
          </mxGeometry>
        </mxCell>
        <mxCell id="7vPjs_VQFnJnU6PhSqXh-47" value="&lt;h6&gt;course page&lt;/h6&gt;" style="ellipse;whiteSpace=wrap;html=1;" vertex="1" parent="1">
          <mxGeometry x="365" y="-520" width="140" height="70" as="geometry" />
        </mxCell>
        <mxCell id="7vPjs_VQFnJnU6PhSqXh-48" value="Use" style="endArrow=open;endSize=12;dashed=1;html=1;rounded=0;exitX=0.5;exitY=0.5;exitDx=0;exitDy=0;exitPerimeter=0;" edge="1" parent="1" target="7vPjs_VQFnJnU6PhSqXh-33" source="gZQf5YCqBlKgvPggh5uA-1">
          <mxGeometry width="160" relative="1" as="geometry">
            <mxPoint x="110" y="-730" as="sourcePoint" />
            <mxPoint x="415" y="-975" as="targetPoint" />
          </mxGeometry>
        </mxCell>
        <mxCell id="7vPjs_VQFnJnU6PhSqXh-49" value="Use" style="endArrow=open;endSize=12;dashed=1;html=1;rounded=0;exitX=0.5;exitY=0.5;exitDx=0;exitDy=0;exitPerimeter=0;entryX=0;entryY=0;entryDx=0;entryDy=0;" edge="1" parent="1" target="7vPjs_VQFnJnU6PhSqXh-36" source="gZQf5YCqBlKgvPggh5uA-1">
          <mxGeometry width="160" relative="1" as="geometry">
            <mxPoint x="110" y="-730" as="sourcePoint" />
            <mxPoint x="425" y="-965" as="targetPoint" />
          </mxGeometry>
        </mxCell>
        <mxCell id="7vPjs_VQFnJnU6PhSqXh-50" value="Use" style="endArrow=open;endSize=12;dashed=1;html=1;rounded=0;exitX=0.5;exitY=0.5;exitDx=0;exitDy=0;exitPerimeter=0;entryX=0;entryY=0;entryDx=0;entryDy=0;" edge="1" parent="1" target="7vPjs_VQFnJnU6PhSqXh-47" source="gZQf5YCqBlKgvPggh5uA-1">
          <mxGeometry width="160" relative="1" as="geometry">
            <mxPoint x="110" y="-730" as="sourcePoint" />
            <mxPoint x="435" y="-955" as="targetPoint" />
          </mxGeometry>
        </mxCell>
        <mxCell id="7vPjs_VQFnJnU6PhSqXh-51" style="edgeStyle=orthogonalEdgeStyle;rounded=0;orthogonalLoop=1;jettySize=auto;html=1;exitX=0;exitY=0.5;exitDx=0;exitDy=0;entryX=1;entryY=0.5;entryDx=0;entryDy=0;" edge="1" parent="1" source="7vPjs_VQFnJnU6PhSqXh-52" target="7vPjs_VQFnJnU6PhSqXh-55">
          <mxGeometry relative="1" as="geometry" />
        </mxCell>
        <mxCell id="7vPjs_VQFnJnU6PhSqXh-52" value="buy the course" style="ellipse;whiteSpace=wrap;html=1;" vertex="1" parent="1">
          <mxGeometry x="625" y="-280" width="215" height="80" as="geometry" />
        </mxCell>
        <mxCell id="7vPjs_VQFnJnU6PhSqXh-53" value="Use" style="endArrow=open;endSize=12;dashed=1;html=1;rounded=0;exitX=0.5;exitY=0.5;exitDx=0;exitDy=0;exitPerimeter=0;entryX=0;entryY=0;entryDx=0;entryDy=0;" edge="1" parent="1" target="7vPjs_VQFnJnU6PhSqXh-52" source="gZQf5YCqBlKgvPggh5uA-1">
          <mxGeometry width="160" relative="1" as="geometry">
            <mxPoint x="110" y="-730" as="sourcePoint" />
            <mxPoint x="390" y="-450" as="targetPoint" />
          </mxGeometry>
        </mxCell>
        <mxCell id="7vPjs_VQFnJnU6PhSqXh-54" style="edgeStyle=orthogonalEdgeStyle;rounded=0;orthogonalLoop=1;jettySize=auto;html=1;exitX=0.5;exitY=1;exitDx=0;exitDy=0;entryX=0;entryY=0.5;entryDx=0;entryDy=0;" edge="1" parent="1" source="7vPjs_VQFnJnU6PhSqXh-55" target="7vPjs_VQFnJnU6PhSqXh-58">
          <mxGeometry relative="1" as="geometry" />
        </mxCell>
        <mxCell id="7vPjs_VQFnJnU6PhSqXh-55" value="Bill page" style="ellipse;whiteSpace=wrap;html=1;" vertex="1" parent="1">
          <mxGeometry x="335" y="-280" width="180" height="80" as="geometry" />
        </mxCell>
        <mxCell id="7vPjs_VQFnJnU6PhSqXh-56" value="Use" style="endArrow=open;endSize=12;dashed=1;html=1;rounded=0;exitX=0.5;exitY=0.5;exitDx=0;exitDy=0;exitPerimeter=0;entryX=0;entryY=0.5;entryDx=0;entryDy=0;" edge="1" parent="1" target="7vPjs_VQFnJnU6PhSqXh-55" source="gZQf5YCqBlKgvPggh5uA-1">
          <mxGeometry width="160" relative="1" as="geometry">
            <mxPoint x="110" y="-730" as="sourcePoint" />
            <mxPoint x="405" y="-490" as="targetPoint" />
          </mxGeometry>
        </mxCell>
        <mxCell id="7vPjs_VQFnJnU6PhSqXh-57" style="edgeStyle=orthogonalEdgeStyle;rounded=0;orthogonalLoop=1;jettySize=auto;html=1;exitX=1;exitY=0.5;exitDx=0;exitDy=0;entryX=0;entryY=0.5;entryDx=0;entryDy=0;" edge="1" parent="1" source="7vPjs_VQFnJnU6PhSqXh-58" target="7vPjs_VQFnJnU6PhSqXh-59">
          <mxGeometry relative="1" as="geometry" />
        </mxCell>
        <mxCell id="7vPjs_VQFnJnU6PhSqXh-58" value="" style="ellipse;html=1;shape=endState;fillColor=#000000;strokeColor=#ff0000;" vertex="1" parent="1">
          <mxGeometry x="565" y="-150" width="30" height="30" as="geometry" />
        </mxCell>
        <mxCell id="7vPjs_VQFnJnU6PhSqXh-59" value="landing page" style="ellipse;whiteSpace=wrap;html=1;" vertex="1" parent="1">
          <mxGeometry x="636" y="-160" width="210" height="80" as="geometry" />
        </mxCell>
        <mxCell id="gZQf5YCqBlKgvPggh5uA-1" value="User" style="shape=umlActor;verticalLabelPosition=bottom;verticalAlign=top;html=1;" vertex="1" parent="1">
          <mxGeometry x="50" y="-770" width="50" height="90" as="geometry" />
        </mxCell>
      </root>
    </mxGraphModel>
  </diagram>
</mxfile>
